<svg width="200" height="123" viewBox="0 0 200 123" fill="none" xmlns="http://www.w3.org/2000/svg">
<path d="M129.896 25.6921C129.896 25.2179 129.79 24.7498 129.584 24.3225C129.378 23.8952 129.079 23.5198 128.708 23.2241C127.588 22.5771 125.865 22.7636 124.019 22.9696C123.562 23.0213 123.101 23.0685 122.636 23.1114C120.56 23.2865 118.319 23.2425 116.694 22.6981C114.157 21.853 111.93 19.6959 110.38 17.5583C108.635 15.0894 105.803 16.8184 103.613 18.1561C103.204 18.4044 102.815 18.6426 102.463 18.8364C100.924 19.6716 99.0359 20.6372 97.0037 21.5375C96.5752 21.2345 96.0778 21.0432 95.5567 20.9809C95.0355 20.9185 94.5071 20.9872 94.0192 21.1805C93.5312 21.3739 93.0992 21.6859 92.7622 22.0883C92.4253 22.4907 92.194 22.9707 92.0893 23.485C90.651 24.0322 89.2802 24.5612 87.977 25.0721C87.538 24.6213 86.9743 24.312 86.3583 24.1839C85.7422 24.0558 85.102 24.1148 84.5197 24.3533C83.9374 24.5917 83.4397 24.9988 83.0905 25.5222C82.7413 26.0456 82.5565 26.6615 82.5598 27.2907C77.3685 29.5157 73.513 31.5353 70.7123 33.6974C68.3397 35.5346 66.62 37.541 65.4792 39.9399C64.3573 42.306 63.8939 44.8445 63.7169 47.5812C63.4788 51.2884 66.5213 54.0982 69.936 54.0981L123.587 54.0975C125.261 54.0974 126.867 53.4324 128.051 52.2486C129.234 51.0649 129.899 49.4595 129.899 47.7854L129.899 44.6295L107.807 44.6298C106.974 44.6242 106.177 44.2893 105.589 43.6981C105.002 43.1068 104.672 42.3072 104.672 41.4738C104.672 40.6404 105.002 39.8408 105.589 39.2496C106.177 38.6583 106.974 38.3234 107.807 38.3178L129.899 38.3175L129.896 25.6921Z" fill="white"/>
<path d="M32.523 83.696V106H29.611V95.888H18.251V106H15.339V83.696H18.251V93.488H29.611V83.696H32.523ZM50.6793 101.04H40.9513L39.1593 106H36.0872L44.1513 83.824H47.5113L55.5433 106H52.4713L50.6793 101.04ZM49.8473 98.672L45.8153 87.408L41.7833 98.672H49.8473ZM73.9698 90.224C73.9698 92.08 73.3298 93.6267 72.0498 94.864C70.7911 96.08 68.8604 96.688 66.2578 96.688H61.9698V106H59.0578V83.696H66.2578C68.7751 83.696 70.6844 84.304 71.9858 85.52C73.3084 86.736 73.9698 88.304 73.9698 90.224ZM66.2578 94.288C67.8791 94.288 69.0738 93.936 69.8418 93.232C70.6098 92.528 70.9938 91.5253 70.9938 90.224C70.9938 87.472 69.4151 86.096 66.2578 86.096H61.9698V94.288H66.2578ZM92.501 90.224C92.501 92.08 91.861 93.6267 90.581 94.864C89.3223 96.08 87.3917 96.688 84.789 96.688H80.501V106H77.589V83.696H84.789C87.3063 83.696 89.2157 84.304 90.517 85.52C91.8397 86.736 92.501 88.304 92.501 90.224ZM84.789 94.288C86.4103 94.288 87.605 93.936 88.373 93.232C89.141 92.528 89.525 91.5253 89.525 90.224C89.525 87.472 87.9463 86.096 84.789 86.096H80.501V94.288H84.789ZM111.736 83.696L104.472 97.584V106H101.56V97.584L94.2643 83.696H97.4963L103 94.992L108.504 83.696H111.736ZM135.947 83.696V86.064H126.251V93.584H134.123V95.952H126.251V106H123.339V83.696H135.947ZM142.376 86.064V93.52H150.504V95.92H142.376V103.6H151.464V106H139.464V83.664H151.464V86.064H142.376ZM158.782 86.064V93.52H166.91V95.92H158.782V103.6H167.87V106H155.87V83.664H167.87V86.064H158.782ZM186.005 83.696V86.064H179.925V106H177.013V86.064H170.901V83.696H186.005Z" fill="white"/>
<line x1="10" y1="67.7" x2="190" y2="67.7" stroke="white" stroke-width="0.6"/>
<line x1="10" y1="122.7" x2="190" y2="122.7" stroke="white" stroke-width="0.6"/>
<path d="M45.5 40.499H42.5V43.499H41.5V40.499H38.5V39.499H41.5V36.499H42.5V39.499H45.5V40.499Z" fill="white"/>
<path d="M160.5 40.499H157.5V43.499H156.5V40.499H153.5V39.499H156.5V36.499H157.5V39.499H160.5V40.499Z" fill="white"/>
</svg>
