<svg width="80" height="65" viewBox="0 0 80 65" fill="none" xmlns="http://www.w3.org/2000/svg">
<path d="M8.05503 53.9215V64.3765H6.69003V59.6365H1.36501V64.3765H0V53.9215H1.36501V58.5115H6.69003V53.9215H8.05503ZM16.5658 62.0515H12.0058L11.1658 64.3765H9.72576L13.5058 53.9815H15.0808L18.8458 64.3765H17.4058L16.5658 62.0515ZM16.1758 60.9415L14.2858 55.6615L12.3958 60.9415H16.1758ZM27.4833 56.9815C27.4833 57.8515 27.1833 58.5765 26.5833 59.1565C25.9933 59.7265 25.0883 60.0115 23.8683 60.0115H21.8583V64.3765H20.4933V53.9215H23.8683C25.0483 53.9215 25.9433 54.2065 26.5533 54.7765C27.1733 55.3465 27.4833 56.0815 27.4833 56.9815ZM23.8683 58.8865C24.6283 58.8865 25.1883 58.7215 25.5483 58.3915C25.9083 58.0615 26.0883 57.5915 26.0883 56.9815C26.0883 55.6915 25.3483 55.0465 23.8683 55.0465H21.8583V58.8865H23.8683ZM36.1698 56.9815C36.1698 57.8515 35.8698 58.5765 35.2698 59.1565C34.6798 59.7265 33.7748 60.0115 32.5548 60.0115H30.5448V64.3765H29.1798V53.9215H32.5548C33.7348 53.9215 34.6298 54.2065 35.2398 54.7765C35.8598 55.3465 36.1698 56.0815 36.1698 56.9815ZM32.5548 58.8865C33.3148 58.8865 33.8748 58.7215 34.2348 58.3915C34.5948 58.0615 34.7748 57.5915 34.7748 56.9815C34.7748 55.6915 34.0348 55.0465 32.5548 55.0465H30.5448V58.8865H32.5548ZM45.1863 53.9215L41.7813 60.4315V64.3765H40.4163V60.4315L36.9964 53.9215H38.5114L41.0913 59.2165L43.6713 53.9215H45.1863ZM56.5352 53.9215V55.0315H51.9902V58.5565H55.6802V59.6665H51.9902V64.3765H50.6252V53.9215H56.5352ZM59.5488 55.0315V58.5265H63.3588V59.6515H59.5488V63.2515H63.8088V64.3765H58.1838V53.9065H63.8088V55.0315H59.5488ZM67.2392 55.0315V58.5265H71.0492V59.6515H67.2392V63.2515H71.4992V64.3765H65.8742V53.9065H71.4992V55.0315H67.2392ZM80 53.9215V55.0315H77.15V64.3765H75.785V55.0315H72.92V53.9215H80Z" fill="#95389E"/>
<path d="M56.8128 23.4376C56.8128 33.6721 48.516 41.9689 38.2814 41.9689C28.0469 41.9689 19.7501 33.6721 19.7501 23.4376C19.7501 13.203 28.0469 4.90625 38.2814 4.90625C48.516 4.90625 56.8128 13.203 56.8128 23.4376Z" stroke="#43D8C9" stroke-width="2"/>
<path d="M60.7189 23.4376C60.7189 35.8295 50.6733 45.8752 38.2813 45.8752C25.8894 45.8752 15.8438 35.8295 15.8438 23.4376C15.8438 11.0457 25.8894 1 38.2813 1C50.6733 1 60.7189 11.0457 60.7189 23.4376Z" stroke="#43D8C9" stroke-width="2"/>
<path fill-rule="evenodd" clip-rule="evenodd" d="M23.748 17.8453C23.7482 17.4128 23.9502 16.9196 24.2807 16.7288C24.8726 16.3871 25.9752 16.5397 26.6423 16.633C27.6414 16.7714 28.7394 16.8165 29.7051 16.4957C30.4187 16.2564 31.1245 15.719 31.696 15.1539C31.7906 15.0615 32.5521 14.1763 32.5521 14.1763C33.5216 12.8026 35.1104 14.1988 36.1254 14.7522C36.8197 15.129 37.6714 15.5646 38.5882 15.9708C38.7817 15.834 39.0063 15.7476 39.2415 15.7194C39.4768 15.6913 39.7154 15.7223 39.9357 15.8097C40.156 15.8971 40.351 16.0381 40.503 16.2199C40.655 16.4016 40.7592 16.6185 40.8062 16.8508C41.4542 17.096 42.0724 17.3342 42.6609 17.5656C42.8589 17.3622 43.1133 17.2226 43.3912 17.1648C43.6691 17.1071 43.958 17.1337 44.2207 17.2413C44.4834 17.3488 44.708 17.5325 44.8655 17.7687C45.0231 18.0048 45.1065 18.2827 45.105 18.5665C47.4471 19.5704 49.1866 20.4816 50.4503 21.4571C51.5207 22.286 52.2966 23.1912 52.8113 24.2735C53.3175 25.341 53.5273 26.4876 53.6064 27.7211C53.7138 29.3937 52.3411 30.6614 50.8005 30.6614L26.5944 30.661C25.8391 30.661 25.1148 30.361 24.5808 29.8269C24.0467 29.2928 23.7467 28.5685 23.7467 27.8132L23.748 17.8453ZM26.5957 23.5409L26.5963 19.5008C27.9271 19.6301 29.3257 19.6234 30.6054 19.197C31.9206 18.7582 32.996 17.8727 33.6959 17.1825C34.1265 16.7579 34.2346 16.9652 34.7642 17.253C35.369 17.5829 36.0997 17.96 36.8997 18.3318L36.802 18.4786C36.6968 18.6342 36.6235 18.809 36.5861 18.9929C36.5488 19.1769 36.5482 19.3665 36.5844 19.5507C36.6206 19.7349 36.6929 19.9101 36.7971 20.0663C36.9013 20.2225 37.0353 20.3565 37.1915 20.4607C37.3477 20.5649 37.5229 20.6371 37.7071 20.6733C37.8913 20.7095 38.0809 20.7089 38.2649 20.6716C38.4489 20.6342 38.6236 20.5609 38.7792 20.4557C38.9347 20.3506 39.0679 20.2157 39.1711 20.0589L39.5878 19.4336C40.0882 19.6226 40.5671 19.8065 41.0244 19.9853C40.8471 20.3052 40.7997 20.681 40.892 21.0349C40.9843 21.3887 41.2093 21.6935 41.5202 21.886C41.8311 22.0786 42.2042 22.1441 42.5621 22.069C42.9201 21.994 43.2354 21.7841 43.4427 21.4828L43.7178 21.0708C46.0801 22.0696 47.649 22.8903 48.7105 23.7095C49.498 24.3186 49.9514 24.8905 50.2397 25.4951C50.5259 26.0961 50.6893 26.8206 50.759 27.8129L26.5957 27.8126L26.5957 26.3887L33.7151 26.3888C34.0911 26.3863 34.4509 26.2352 34.7159 25.9684C34.9809 25.7016 35.1296 25.3409 35.1296 24.9649C35.1296 24.5889 34.9809 24.2281 34.7159 23.9614C34.4509 23.6946 34.0912 23.5435 33.7152 23.541L26.5957 23.5409Z" fill="#95389E"/>
</svg>
